<?xml version="1.0" standalone="no"?>
<!DOCTYPE svg PUBLIC "-//W3C//DTD SVG 20010904//EN"
 "http://www.w3.org/TR/2001/REC-SVG-20010904/DTD/svg10.dtd">
<svg version="1.0" xmlns="http://www.w3.org/2000/svg"
 width="1024.000000pt" height="729.000000pt" viewBox="0 0 1024.000000 729.000000"
 preserveAspectRatio="xMidYMid meet">
<metadata>
Created by potrace 1.16, written by Peter Selinger 2001-2019
</metadata>
<g transform="translate(0.000000,729.000000) scale(0.100000,-0.100000)"
fill="#000000" stroke="none">
<path d="M4665 7208 c-8 -93 0 -108 64 -108 20 0 112 -9 204 -20 132 -15 179
-24 222 -45 30 -14 69 -28 87 -32 18 -3 42 -16 55 -29 12 -12 32 -25 43 -29
11 -3 20 -10 20 -15 0 -4 17 -11 37 -15 21 -4 42 -12 46 -18 6 -9 10 -9 14 1
7 17 40 15 47 -4 3 -8 10 -12 16 -9 5 3 10 0 10 -8 0 -21 44 -57 71 -57 17 0
20 -3 11 -9 -18 -11 23 -22 48 -13 25 9 8 32 -42 55 -20 9 -51 35 -68 57 -19
23 -40 40 -52 40 -19 0 -58 34 -58 51 0 4 -9 5 -21 2 -12 -3 -24 -1 -28 6 -4
6 -21 14 -37 16 -47 8 -108 28 -124 41 -8 6 -25 15 -38 19 -25 7 -21 25 6 25
16 0 39 10 142 61 42 20 91 27 303 43 95 6 217 8 297 4 138 -7 292 4 298 22 2
6 10 10 17 10 8 0 19 9 25 20 11 20 8 20 -799 20 l-809 0 -7 -82z"/>
<path d="M6860 7279 c0 -17 62 -69 83 -69 9 0 17 -4 17 -10 0 -11 43 -22 148
-40 39 -6 70 -16 66 -21 -3 -5 1 -9 10 -9 8 0 16 -4 18 -9 2 -5 28 -11 58 -14
30 -2 73 -12 94 -21 22 -9 41 -14 44 -12 2 3 16 0 31 -5 14 -6 49 -12 76 -14
77 -5 105 -15 105 -36 0 -10 5 -19 10 -19 6 0 10 17 10 38 0 20 8 51 18 69 9
17 28 51 41 75 13 23 27 58 32 76 l7 32 -434 0 c-313 0 -434 -3 -434 -11z"/>
<path d="M9807 7233 c37 -80 41 -145 13 -230 -39 -123 -79 -172 -205 -250
-155 -95 -337 -128 -766 -138 -122 -3 -205 -10 -244 -20 -33 -8 -73 -15 -91
-15 -42 0 -70 -30 -54 -59 6 -11 14 -20 18 -19 4 1 18 -5 32 -14 16 -11 50
-18 95 -19 39 -1 95 -8 125 -15 104 -24 235 -42 290 -40 149 7 321 7 332 -1
22 -14 190 -2 266 19 53 14 81 17 100 10 15 -5 47 -9 72 -8 l45 1 0 55 c0 49
4 61 35 98 19 23 40 42 46 42 19 0 41 58 51 133 6 45 6 89 3 265 -3 128 5 145
77 171 52 19 93 51 93 73 0 17 -13 18 -179 18 l-180 0 26 -57z"/>
<path d="M2540 7050 c-106 -10 -110 -19 -45 -87 25 -25 45 -51 45 -57 0 -6 11
-19 24 -28 l24 -17 26 60 c31 71 34 115 9 127 -10 4 -47 5 -83 2z"/>
<path d="M4904 6435 c-17 -23 -19 -23 -38 -7 -18 16 -19 16 -13 0 4 -11 -1
-22 -12 -30 -10 -7 -24 -31 -32 -53 -7 -22 -20 -46 -28 -53 -12 -9 -13 -15 -4
-20 14 -9 6 -57 -12 -72 -7 -6 -35 -12 -62 -14 -49 -3 -83 10 -83 30 0 6 -11
12 -25 12 -13 0 -22 -4 -19 -9 2 -4 -4 -17 -16 -29 -11 -11 -20 -24 -20 -28 0
-5 -16 -16 -35 -25 -37 -18 -43 -17 -22 5 43 45 56 71 51 105 -5 41 -11 53
-27 53 -7 0 -23 15 -36 33 -13 17 -21 24 -17 14 8 -23 -19 -34 -41 -16 -12 10
-15 10 -9 2 4 -7 3 -13 -3 -13 -16 0 -24 21 -12 33 9 9 6 16 -11 29 -13 9 -20
20 -16 24 10 9 38 -15 48 -41 7 -17 9 -17 9 -2 1 9 6 17 11 17 6 0 10 7 10 16
0 10 -6 14 -14 11 -8 -3 -17 1 -20 9 -6 16 -71 20 -81 4 -3 -5 -12 -10 -18
-10 -7 0 -6 4 3 11 12 9 12 10 -3 5 -10 -3 -30 -6 -43 -6 -13 0 -24 -4 -24
-10 0 -5 15 -10 33 -10 42 0 53 -9 52 -43 -1 -32 2 -38 33 -55 16 -9 28 -10
42 -2 26 14 30 13 30 -9 0 -23 -68 -71 -101 -71 -14 0 -30 5 -36 11 -23 23
-40 3 -34 -38 9 -57 49 -101 97 -105 35 -3 39 -6 39 -30 0 -14 3 -29 6 -32 9
-10 -5 -71 -16 -70 -36 4 -56 18 -52 36 6 20 -35 73 -46 61 -4 -3 -13 0 -22 7
-12 10 -15 9 -16 -6 0 -11 -3 -14 -6 -6 -8 21 -23 13 -23 -12 0 -14 -6 -31
-13 -38 -26 -25 -45 -63 -56 -113 -7 -27 -17 -53 -23 -56 -7 -4 -7 -13 1 -27
32 -60 -10 -92 -88 -67 -21 7 -22 6 -12 -13 15 -29 14 -32 -14 -32 -28 0 -34
-17 -10 -26 28 -11 -4 -36 -37 -29 -21 5 -28 3 -28 -9 0 -10 -9 -16 -26 -16
-14 0 -34 -5 -45 -11 -11 -5 -48 -12 -82 -15 -47 -3 -66 -9 -77 -25 -18 -22
-30 -16 -30 15 -1 21 -1 21 -15 2 -8 -11 -15 -33 -15 -49 0 -26 3 -28 25 -23
18 5 27 1 35 -14 6 -10 10 -23 9 -27 -5 -32 7 -53 51 -88 44 -35 48 -41 35
-55 -18 -20 -20 -36 -2 -22 15 12 115 13 123 1 3 -5 14 -9 25 -9 21 0 27 -26
7 -32 -17 -6 -2 -37 23 -46 16 -6 22 -18 24 -45 1 -20 -2 -37 -7 -37 -5 0 -6
-4 -3 -10 3 -5 3 -25 -1 -45 -5 -30 -10 -35 -34 -35 -27 0 -28 3 -35 60 -8 69
-21 85 -59 70 -22 -8 -25 -13 -16 -30 5 -11 15 -29 20 -40 8 -15 6 -28 -4 -48
-8 -16 -11 -34 -6 -42 9 -18 23 -102 24 -150 1 -32 3 -35 30 -32 26 3 28 1 22
-20 -3 -13 -6 -34 -6 -48 0 -20 -7 -29 -33 -38 -41 -15 -67 -15 -67 -2 0 6 -6
10 -14 10 -8 0 -13 -8 -12 -17 1 -12 -7 -19 -24 -20 -14 -1 -18 0 -7 3 21 7
22 20 3 27 -9 4 -19 -5 -26 -24 -7 -16 -18 -29 -25 -29 -7 0 -29 -12 -50 -26
-21 -14 -44 -23 -52 -20 -8 3 -24 -1 -36 -9 -12 -8 -29 -15 -39 -15 -11 0 -23
-14 -32 -34 -8 -18 -19 -37 -25 -40 -6 -4 -11 -16 -11 -27 0 -10 -7 -19 -15
-19 -23 0 -89 46 -114 80 -12 17 -27 28 -32 24 -6 -3 -8 -9 -5 -12 3 -3 1 -11
-5 -19 -9 -10 -7 -18 7 -34 10 -11 19 -28 19 -36 0 -9 8 -17 17 -19 34 -5 67
-38 68 -68 0 -28 -1 -28 -18 -13 -26 23 -30 22 -40 -15 -6 -23 -15 -34 -30
-36 -19 -3 -20 -6 -11 -24 6 -11 9 -21 7 -22 -2 -2 -14 -11 -28 -21 -19 -13
-20 -16 -5 -10 11 4 35 9 52 12 20 3 35 13 38 24 7 20 40 26 50 9 3 -5 18 -7
33 -4 32 6 68 -25 59 -51 -8 -18 14 -20 31 -3 8 8 15 9 22 2 14 -14 -5 -64
-24 -64 -11 0 -12 -8 -6 -35 8 -36 3 -44 -18 -23 -8 8 -14 5 -21 -16 -6 -14
-17 -29 -25 -32 -9 -3 -18 -13 -21 -23 -2 -9 -20 -25 -39 -35 -35 -18 -35 -18
-72 3 -43 25 -50 22 -37 -16 6 -15 7 -37 3 -48 -4 -11 -6 -23 -3 -28 8 -14
-51 -29 -69 -18 -26 16 -26 16 -38 -46 -8 -38 -9 -62 -2 -73 7 -11 6 -22 -4
-35 -8 -10 -12 -28 -9 -39 3 -12 2 -15 -1 -8 -4 9 -11 7 -25 -9 -10 -12 -19
-27 -19 -32 0 -6 7 -2 16 9 15 18 15 18 5 -3 -6 -12 -11 -31 -11 -42 0 -12 -4
-21 -10 -21 -5 0 -10 -15 -10 -33 0 -45 -11 -53 -26 -20 l-13 28 5 -30 c4 -25
3 -27 -6 -12 -15 23 -26 22 -26 -3 0 -13 7 -20 19 -20 11 0 17 -5 14 -12 -2
-7 -14 -12 -25 -11 -12 2 -33 -8 -47 -21 -36 -33 -73 -38 -111 -15 -38 23 -48
24 -40 3 9 -23 -11 -54 -35 -54 -17 0 -18 -3 -9 -20 7 -13 21 -20 42 -20 17 0
40 -7 50 -17 10 -9 21 -13 25 -10 4 4 -2 13 -12 21 -14 10 -15 15 -5 21 7 4
16 2 21 -6 7 -11 9 -10 9 4 0 9 4 17 9 17 11 0 36 -30 25 -30 -5 0 -1 -5 9
-11 9 -6 17 -22 17 -37 0 -16 4 -32 9 -37 24 -26 4 -135 -25 -135 -17 0 -19
-20 -1 -20 7 0 5 -5 -5 -10 -9 -6 -23 -24 -32 -40 -13 -27 -13 -32 0 -45 9 -9
13 -23 9 -34 -3 -11 -1 -22 5 -26 6 -3 8 -10 6 -14 -3 -4 -1 -21 4 -37 6 -21
9 -23 9 -9 1 17 3 18 12 5 9 -12 10 -11 6 7 -3 12 0 24 6 26 8 2 8 16 1 50
-14 58 4 71 31 21 10 -19 21 -34 25 -34 4 0 22 16 41 35 19 19 39 35 46 35 20
0 74 52 69 66 -3 7 8 32 24 56 16 24 30 50 30 58 0 13 1 13 10 0 8 -12 10 -11
8 5 -2 36 2 56 11 50 5 -3 12 4 16 14 8 26 43 37 60 20 20 -22 26 -74 10 -95
-9 -12 -14 -14 -15 -6 0 7 -4 10 -10 7 -12 -7 -14 -26 -2 -23 4 1 16 -3 28 -9
25 -14 39 -6 47 27 8 31 55 82 70 77 7 -2 13 -13 15 -24 2 -11 28 -46 58 -77
52 -53 55 -59 61 -121 5 -50 2 -69 -9 -83 -8 -9 -18 -25 -21 -34 -3 -9 -16
-18 -29 -20 -26 -3 -39 -38 -14 -38 9 0 16 5 16 11 0 8 4 9 13 0 8 -6 17 -8
20 -4 4 3 7 -1 7 -9 0 -8 9 -27 21 -42 15 -19 16 -24 5 -20 -9 3 -16 1 -16 -5
0 -6 5 -11 10 -11 6 0 13 0 18 -1 4 0 10 10 14 23 5 18 6 15 7 -14 1 -21 6
-38 12 -38 6 0 8 7 5 16 -4 9 -2 22 3 28 5 6 12 25 14 41 3 18 10 29 17 27 11
-3 11 0 1 12 -18 22 -5 76 19 76 10 0 25 9 33 20 8 11 16 17 20 14 3 -3 10 3
16 14 10 19 61 37 61 22 0 -10 41 -1 58 13 9 7 16 7 24 -1 14 -14 32 -16 24
-3 -10 15 81 11 94 -4 7 -8 18 -15 24 -15 6 0 4 5 -4 11 -12 9 -12 10 3 5 10
-3 20 -6 23 -6 2 0 1 -7 -2 -15 -4 -8 -1 -15 6 -15 6 0 9 -4 5 -9 -3 -5 2 -17
11 -26 10 -10 15 -27 12 -45 -4 -29 5 -40 17 -20 4 6 11 8 16 5 17 -11 9 -40
-18 -72 -23 -25 -38 -32 -80 -37 -29 -3 -55 -1 -58 5 -4 5 4 9 17 10 29 1 80
30 86 49 4 11 1 10 -12 -2 -28 -28 -136 -51 -136 -29 0 13 25 20 48 14 12 -3
34 5 54 19 18 12 35 24 38 26 9 6 -26 22 -49 22 -30 0 -111 -38 -111 -52 0
-12 -26 -38 -38 -38 -6 0 -13 7 -16 16 -3 9 -12 14 -20 11 -7 -3 -19 0 -25 6
-8 8 -11 7 -11 -3 0 -23 -13 -2 -16 26 -2 19 1 24 11 20 12 -4 13 -2 2 16 -9
16 -9 22 1 25 6 3 12 13 12 23 0 10 6 21 13 23 9 4 9 6 -1 6 -46 3 -73 -114
-46 -197 10 -31 11 -48 4 -63 -16 -29 -4 -39 30 -26 24 9 29 16 24 32 -5 16
-4 18 6 8 10 -9 11 -23 4 -55 -9 -42 -10 -43 -58 -49 -43 -5 -49 -3 -57 18 -6
15 -17 23 -33 23 -29 0 -56 24 -56 51 0 18 -2 18 -39 -6 -31 -21 -37 -31 -34
-53 1 -15 0 -21 -3 -14 -3 6 -10 12 -16 12 -14 0 -30 19 -52 62 -22 42 -61 57
-64 25 0 -11 -8 -27 -17 -36 -13 -14 -15 -14 -15 1 0 9 -9 20 -21 23 -25 8
-25 8 -33 -35 -4 -22 -3 -28 2 -16 6 14 11 16 16 7 4 -6 3 -18 -4 -25 -12 -16
-45 -15 -45 2 0 6 -3 14 -8 18 -4 4 -7 0 -7 -9 0 -16 -13 -21 -50 -18 -10 0
-11 -1 -2 -5 6 -3 12 -14 12 -25 0 -10 5 -19 10 -19 6 0 10 -7 10 -15 0 -8 -5
-15 -11 -15 -7 0 -9 -9 -6 -22 5 -21 5 -21 -7 -5 -7 9 -20 17 -29 17 -9 0 -19
5 -23 12 -4 7 -3 8 4 4 8 -5 10 -2 6 8 -3 9 -9 14 -13 12 -4 -3 -13 -1 -21 4
-9 5 -19 5 -27 -1 -8 -7 -18 -7 -32 1 -12 6 -21 7 -21 2 0 -14 23 -32 43 -32
10 0 15 -4 12 -10 -12 -19 -44 -10 -78 24 -20 19 -38 32 -41 28 -3 -3 -6 1 -6
9 0 8 -8 26 -17 39 -10 14 -18 38 -19 55 -1 34 -30 85 -48 85 -36 0 -69 -71
-67 -144 1 -44 5 -51 39 -61 32 -9 29 21 -3 32 -24 8 -25 9 -9 31 9 13 22 21
30 18 8 -3 14 -1 14 5 0 6 5 7 12 3 8 -5 5 -13 -10 -25 -25 -20 -29 -31 -7
-23 10 4 20 -5 30 -30 19 -45 19 -49 -3 -42 -12 4 -19 1 -19 -8 0 -13 5 -13
35 0 40 16 64 18 42 3 -12 -9 -10 -10 9 -5 13 2 30 -1 37 -9 11 -11 9 -14 -12
-19 -14 -4 -29 -4 -34 -1 -6 4 -10 2 -10 -4 0 -5 5 -11 11 -13 9 -3 8 -10 -1
-28 l-13 -24 -14 28 c-8 15 -12 34 -9 42 5 12 1 14 -17 8 -12 -3 -22 -7 -23
-8 0 0 -8 -18 -18 -38 -18 -41 -36 -50 -36 -19 0 11 9 27 21 35 12 8 18 19 14
25 -10 18 -25 13 -25 -9 0 -10 -10 -25 -22 -31 -21 -11 -22 -11 -10 4 12 14
10 15 -17 4 -16 -6 -28 -15 -25 -19 3 -4 -2 -8 -10 -8 -9 0 -16 -4 -16 -10 0
-5 7 -10 15 -10 8 0 12 -6 9 -14 -6 -16 15 -33 25 -20 3 5 24 9 46 8 22 -1 45
2 51 7 7 6 17 3 25 -8 11 -13 11 -17 2 -20 -7 -3 -13 -9 -13 -15 0 -6 7 -4 17
3 15 12 16 12 10 -4 -4 -11 -3 -16 3 -12 6 3 10 1 10 -6 0 -7 3 -10 6 -7 3 4
1 16 -6 27 -7 15 -8 27 -1 39 9 14 10 13 8 -8 -1 -14 3 -25 10 -25 18 0 42
-37 42 -65 0 -28 -20 -60 -38 -60 -6 0 -11 -13 -11 -30 0 -18 5 -30 13 -30 19
0 36 -20 30 -36 -3 -8 -11 -14 -19 -14 -8 0 -14 -7 -14 -15 0 -8 6 -12 13 -10
6 3 23 -4 36 -14 20 -15 23 -24 17 -55 -4 -20 -11 -36 -16 -36 -6 0 -10 -13
-10 -29 0 -43 -9 -60 -42 -77 -18 -9 -37 -32 -49 -59 -10 -23 -26 -45 -34 -49
-8 -3 -15 -15 -15 -26 0 -22 -20 -26 -49 -10 -16 8 -20 5 -25 -20 -6 -33 -18
-37 -57 -16 -35 18 -59 5 -42 -22 9 -15 9 -22 0 -31 -9 -9 -8 -11 6 -6 9 4 17
3 17 -1 0 -13 -20 -41 -20 -29 0 6 -3 5 -8 -1 -10 -16 -68 -44 -90 -44 -11 0
-25 6 -31 14 -23 28 -85 53 -118 49 l-33 -5 23 -20 c12 -11 17 -17 10 -14 -15
8 -41 -19 -50 -52 -3 -15 -9 -29 -13 -32 -3 -3 -14 -16 -23 -30 -16 -22 -17
-23 -19 -5 -4 46 -3 113 2 110 4 -2 11 5 18 16 10 16 9 19 -3 19 -8 0 -15 5
-15 10 0 6 -5 10 -11 10 -7 0 -21 10 -33 23 -22 23 -56 32 -56 15 0 -5 -5 -6
-11 -2 -6 3 -15 1 -19 -7 -12 -18 48 -99 83 -111 26 -9 27 -13 27 -73 0 -103
1 -104 167 -188 170 -86 433 -198 472 -200 14 -1 29 -6 32 -10 3 -5 9 -2 12 7
4 9 2 17 -3 17 -6 1 -14 2 -19 3 -17 2 -24 16 -14 28 6 7 13 24 16 38 5 20 1
27 -19 37 -14 6 -32 9 -40 6 -9 -3 -14 2 -14 14 0 27 -10 35 -27 22 -10 -9
-13 -7 -13 9 0 12 -9 27 -20 35 -26 18 -38 92 -16 100 9 4 16 18 16 32 0 60
22 115 60 147 20 18 68 60 105 93 37 33 75 61 84 63 9 2 41 5 71 9 30 3 58 10
63 17 5 8 10 7 17 -4 8 -13 10 -13 10 2 0 9 4 18 10 20 12 4 50 109 50 137 0
11 5 23 10 26 6 3 10 19 10 35 0 16 5 32 10 35 6 3 10 19 10 36 0 19 5 29 15
29 8 0 15 4 15 9 0 4 12 20 26 34 14 14 23 31 19 37 -4 6 -3 10 2 8 4 -1 27 4
50 11 30 8 41 16 37 26 -4 9 1 17 12 21 78 26 85 34 59 70 -12 18 -20 20 -55
14 -41 -7 -41 -7 -36 19 5 25 5 25 -6 4 -6 -13 -15 -23 -20 -23 -5 0 -6 -6 -2
-12 5 -8 0 -7 -11 2 -17 14 -18 13 -13 -8 4 -15 2 -22 -8 -22 -20 0 -18 14 9
62 38 69 41 73 65 70 12 -2 22 -7 22 -11 0 -14 75 2 87 19 7 10 30 20 52 24
25 4 47 15 59 31 11 14 24 25 30 25 6 0 8 9 5 20 -5 20 -6 20 -40 -1 -35 -22
-55 -21 -28 1 21 17 19 36 -2 19 -16 -13 -17 -12 -5 3 8 9 19 15 25 12 7 -2
24 7 39 21 33 31 40 31 54 1 10 -21 9 -23 -10 -18 -21 4 -21 4 -1 -11 19 -16
19 -16 1 -17 -11 0 -16 -3 -13 -6 3 -4 34 -6 67 -5 39 1 59 -3 55 -9 -11 -18
56 -70 90 -70 7 0 15 -11 17 -25 3 -13 1 -22 -3 -19 -5 3 -9 -2 -9 -10 0 -8
-10 -21 -22 -27 l-22 -12 22 -8 c14 -5 20 -14 16 -24 -8 -20 -13 -20 -75 15
-64 35 -72 36 -64 11 4 -15 0 -20 -17 -23 -18 -2 -24 -10 -26 -35 -3 -28 -6
-31 -35 -29 -19 1 -31 6 -30 14 2 6 -3 11 -10 9 -7 -1 -11 7 -9 20 2 15 -2 23
-12 23 -10 0 -13 -6 -10 -15 4 -8 1 -15 -5 -15 -6 0 -11 5 -11 10 0 6 -4 10
-10 10 -5 0 -7 -7 -3 -16 4 -10 1 -15 -8 -14 -8 1 -25 2 -39 1 -25 -2 -25 -3
-3 -13 21 -10 39 -70 22 -76 -5 -2 -9 -10 -9 -18 0 -7 -6 -12 -12 -10 -7 1
-10 1 -5 -1 13 -8 8 -73 -6 -79 -10 -4 -12 -17 -7 -49 5 -35 16 -54 48 -85 41
-38 41 -40 21 -51 -12 -6 -36 -8 -54 -5 -18 4 -35 3 -37 -1 -3 -4 -3 -2 -2 5
2 6 -1 12 -7 12 -6 0 -7 5 -4 10 3 6 -4 10 -16 10 -18 0 -19 2 -9 15 9 11 9
15 1 15 -19 0 -24 -28 -12 -59 7 -15 13 -42 13 -59 1 -18 6 -28 12 -26 15 6
18 -31 7 -73 -8 -26 -6 -32 10 -36 15 -4 19 0 19 24 0 20 5 29 16 29 9 0 14 6
11 13 -3 8 -1 20 4 28 7 11 13 9 28 -11 21 -26 33 -80 19 -80 -5 0 -13 -11
-18 -25 -13 -35 -38 -22 -43 23 -3 29 -4 26 -5 -15 -2 -38 -6 -53 -16 -53 -18
0 -30 -30 -16 -44 5 -5 10 -15 10 -21 0 -5 -5 -3 -10 5 -16 25 -12 -10 5 -43
12 -24 12 -29 0 -33 -19 -8 -35 3 -35 24 -1 15 -2 15 -15 -2 -12 -16 -12 -22
1 -47 8 -16 14 -31 14 -34 -1 -34 4 -48 26 -74 33 -40 74 -42 103 -4 26 32 39
23 24 -17 -17 -46 15 -59 36 -14 9 21 9 31 -3 48 l-14 22 51 -10 c39 -8 51 -8
55 2 2 7 7 10 11 7 15 -9 66 59 63 84 -3 16 0 21 8 16 7 -4 16 -1 21 6 7 9 7
5 3 -13 -8 -34 11 -38 22 -5 3 12 15 30 26 41 19 18 20 18 18 -15 -3 -47 1
-58 9 -30 6 22 13 25 55 26 26 0 50 -3 52 -7 9 -14 34 -9 34 7 0 19 26 20 33
1 3 -9 15 -12 31 -9 21 4 26 1 26 -15 0 -32 -10 -51 -25 -46 -8 4 -16 -6 -20
-27 -5 -23 -10 -28 -16 -18 -7 12 -9 12 -9 0 0 -8 7 -23 17 -33 9 -10 13 -21
8 -26 -4 -4 -10 -1 -12 6 -3 6 -9 12 -14 12 -6 0 -7 -5 -3 -12 4 -6 0 -16 -8
-22 -8 -6 -20 -21 -26 -33 -9 -15 -18 -20 -34 -15 -20 5 -21 3 -11 -10 20 -23
2 -30 -18 -7 l-17 20 -15 -22 c-9 -12 -20 -18 -27 -14 -8 5 -9 -10 -4 -56 5
-45 4 -60 -5 -55 -6 4 -11 2 -11 -5 0 -7 -6 -5 -13 6 -10 13 -12 30 -6 63 9
45 5 67 -11 57 -4 -3 -10 2 -14 10 -9 26 -25 17 -35 -21 -11 -40 -47 -84 -68
-84 -7 0 -13 -5 -13 -11 0 -5 5 -7 10 -4 6 3 10 1 10 -4 0 -6 -4 -11 -10 -11
-5 0 -9 -3 -9 -8 1 -4 1 -22 0 -39 -1 -27 -5 -33 -23 -33 -27 1 -58 22 -58 39
0 8 -12 11 -32 9 -21 -2 -33 -8 -33 -18 0 -8 -13 -18 -30 -23 -16 -5 -42 -15
-57 -22 -16 -8 -28 -10 -28 -5 0 6 -8 2 -18 -8 -11 -10 -16 -27 -14 -44 4 -26
2 -28 -32 -28 -21 0 -37 5 -38 13 0 6 -2 18 -2 26 -1 8 -12 15 -24 16 -13 1
-27 7 -31 14 -5 7 -18 10 -33 6 -14 -4 -29 -2 -32 4 -4 6 -20 8 -36 4 -23 -4
-34 0 -49 18 -16 20 -21 21 -35 10 -14 -11 -16 -11 -16 3 0 9 -7 16 -16 16 -9
0 -18 9 -21 19 -3 11 -11 17 -18 14 -9 -3 -16 8 -21 34 -5 21 -9 41 -10 46 -1
4 -2 15 -3 25 -1 15 -3 15 -16 -2 -15 -20 -15 -20 -16 0 -1 33 -21 -26 -21
-64 0 -30 -1 -31 -13 -15 -7 10 -17 15 -21 10 -4 -4 -2 -7 4 -7 7 0 12 -7 12
-15 0 -8 -5 -15 -11 -15 -5 0 -7 -5 -3 -12 5 -8 0 -9 -14 -6 -39 11 -23 -2 34
-29 31 -14 74 -26 94 -27 21 0 36 -4 34 -8 -5 -9 192 -71 291 -92 39 -9 115
-27 170 -41 202 -53 364 -82 610 -110 72 -8 172 -20 223 -26 l93 -11 34 38
c36 39 43 54 25 54 -5 0 -10 -5 -10 -11 0 -5 -4 -7 -10 -4 -19 11 -10 32 12
31 16 -1 27 8 37 29 l15 30 7 -27 c4 -14 10 -31 13 -37 4 -7 1 -8 -8 -5 -10 4
-16 1 -16 -9 0 -8 8 -18 17 -21 13 -5 14 -9 4 -19 -7 -7 -17 -12 -24 -12 -6 0
-13 -8 -15 -19 -2 -10 0 -16 6 -12 6 3 12 2 14 -3 1 -5 53 -10 113 -12 92 -3
109 -1 107 11 -2 8 -10 22 -18 30 -11 11 -16 12 -26 2 -14 -14 -32 -16 -23 -2
3 6 -3 10 -14 10 -26 0 -55 43 -48 71 4 15 2 19 -8 15 -9 -3 -12 0 -9 9 3 8
11 12 18 9 7 -3 19 11 29 30 31 67 107 86 107 27 0 -17 14 -40 38 -66 21 -22
41 -47 44 -56 5 -11 14 -15 32 -12 22 5 24 8 15 30 -7 19 -5 28 8 41 12 12 18
13 20 5 3 -9 11 -6 26 7 22 21 37 26 37 12 0 -12 45 -8 46 4 1 17 27 64 35 64
5 0 11 16 15 35 3 19 10 35 16 35 5 0 6 5 2 11 -4 8 -9 7 -15 -2 -4 -8 -13
-14 -19 -14 -5 0 -10 -4 -11 -10 -1 -28 -69 -73 -69 -45 0 5 -16 12 -35 16
-19 3 -39 12 -46 20 -6 8 -15 12 -19 9 -5 -3 -6 4 -3 14 3 13 -4 29 -21 46
-14 14 -26 30 -26 35 0 6 -4 10 -10 10 -5 0 -10 10 -10 21 0 20 2 20 23 7 29
-19 71 -30 130 -33 39 -3 49 1 58 17 9 17 18 19 51 15 l40 -5 -26 27 c-15 15
-26 39 -26 54 0 15 -6 27 -12 27 -7 0 -5 5 5 11 20 12 47 -4 47 -27 0 -8 7
-14 15 -14 8 0 21 -14 30 -30 9 -17 21 -30 28 -30 7 0 4 -7 -7 -15 -10 -7 -15
-18 -11 -24 11 -20 -5 -32 -26 -20 -12 6 -23 8 -26 5 -6 -5 25 -52 32 -48 3 1
6 2 8 1 1 0 11 -2 22 -4 21 -4 45 -31 45 -51 0 -17 -50 -123 -61 -130 -6 -4
-5 -10 4 -17 8 -7 17 -22 20 -35 4 -19 -2 -26 -36 -44 -32 -16 -47 -19 -67
-11 -16 6 -36 6 -54 0 -35 -12 -52 2 -37 31 6 11 11 29 10 39 0 10 -3 13 -6 6
-2 -7 -13 -13 -24 -13 -20 0 -26 -24 -9 -35 14 -8 2 -32 -20 -38 -10 -2 -23
-14 -29 -26 l-12 -21 176 0 c247 0 725 34 725 51 0 5 12 6 28 3 29 -6 267 26
385 52 40 8 95 19 122 24 101 17 213 41 325 71 164 43 214 60 200 69 -7 4 -10
16 -8 26 2 14 12 19 43 19 22 1 48 -5 57 -13 14 -12 30 -9 115 17 104 33 142
51 111 51 -11 0 -18 8 -18 20 0 11 7 20 15 20 8 0 12 6 9 14 -3 8 0 13 8 13 7
-1 13 2 13 8 0 5 -7 8 -15 7 -12 -3 -13 -1 -2 9 6 7 12 29 12 49 0 41 8 54 33
58 47 8 66 -100 25 -138 -16 -15 -19 -23 -11 -31 12 -12 100 12 136 36 16 11
15 13 -13 18 -17 4 -30 13 -30 21 0 8 -5 16 -11 18 -19 6 20 38 45 38 31 0 96
-27 96 -40 0 -17 28 -11 95 21 55 26 64 33 54 45 -7 8 -22 14 -33 13 -38 -2
-43 1 -59 33 -14 28 -14 35 1 67 10 20 23 42 30 49 6 7 12 17 12 21 0 4 11 21
25 37 30 35 31 40 5 54 -11 6 -20 8 -20 4 0 -4 -9 1 -20 11 -24 22 -27 75 -5
75 8 0 15 -4 15 -9 0 -6 19 -14 42 -18 48 -10 68 -36 68 -91 0 -25 5 -35 25
-42 14 -5 25 -11 25 -13 0 -2 -13 -42 -29 -88 -16 -46 -26 -85 -21 -87 24 -9
467 250 478 279 2 5 17 16 34 25 16 8 27 18 24 21 -3 3 0 11 7 19 7 7 32 40
57 72 25 33 59 69 77 81 71 50 269 258 311 327 24 39 84 114 134 165 49 52
111 123 136 159 26 36 54 74 63 85 106 125 119 151 119 236 0 51 -3 59 -19 59
-24 0 -35 15 -50 70 -7 25 -17 60 -23 78 -5 19 -7 53 -3 77 7 49 -1 57 -64 69
-53 10 -61 22 -61 90 0 33 -7 102 -16 151 -9 50 -18 131 -20 180 -1 57 -9 103
-19 125 -25 54 -61 112 -76 121 -26 16 -66 9 -110 -20 l-43 -29 -28 19 c-37
27 -37 57 2 70 17 6 30 14 30 18 0 4 -18 22 -41 40 l-41 33 6 57 c7 61 3 72
-32 90 -21 11 -24 10 -29 -8 -3 -12 -11 -17 -19 -14 -8 3 -17 -3 -21 -13 -3
-11 -11 -22 -17 -26 -6 -4 1 -8 15 -8 31 0 59 -28 59 -60 0 -21 -40 -86 -63
-101 -16 -11 4 -52 44 -95 27 -27 38 -46 33 -57 -9 -24 -29 -21 -60 8 -15 14
-35 25 -45 25 -16 0 -19 -8 -19 -44 0 -26 5 -46 13 -49 7 -4 3 -9 -11 -13 -18
-5 -20 -9 -10 -15 7 -5 8 -9 2 -9 -5 0 -20 14 -32 30 -13 17 -29 30 -37 30 -8
0 -15 9 -15 20 0 16 5 19 28 14 22 -4 29 0 39 22 9 19 9 32 2 46 -6 11 -9 32
-7 47 1 16 -4 36 -12 46 -13 16 -30 43 -45 72 -4 6 5 29 19 50 14 21 26 45 26
54 0 9 7 19 15 23 17 6 20 52 4 61 -30 19 -33 132 -2 121 10 -4 13 0 11 16 -3
20 -10 23 -73 26 -38 2 -71 8 -73 13 -2 5 -11 9 -21 9 -13 0 -21 18 -36 77
l-18 77 22 15 c22 14 21 14 -19 37 -28 16 -50 22 -69 18 -32 -7 -50 11 -32 29
8 8 19 8 41 0 16 -6 32 -8 35 -4 7 12 -46 54 -70 56 -17 2 -20 8 -19 53 2 46
-1 51 -23 57 -14 3 -27 4 -29 2 -7 -7 7 -37 17 -37 5 0 9 -6 9 -14 0 -23 -41
-26 -105 -9 -33 8 -77 15 -97 14 -31 0 -41 5 -55 27 -23 35 -35 44 -111 87
-60 33 -110 46 -97 25 3 -5 -1 -10 -10 -10 -11 0 -15 5 -12 15 4 8 2 17 -3 20
-13 8 -13 72 0 80 19 12 10 21 -34 33 -38 10 -45 16 -51 43 -4 17 -16 40 -26
50 -23 23 -24 47 -2 71 24 27 5 63 -39 71 -18 3 -43 9 -55 13 -18 5 -23 2 -23
-12 0 -38 -15 0 -16 41 -1 24 -11 63 -23 87 -11 25 -21 49 -21 56 0 13 -32 32
-63 38 -16 2 -25 -4 -34 -22 -10 -22 -10 -24 2 -14 11 9 15 7 21 -14 7 -29 14
-32 32 -14 9 10 16 8 30 -5 14 -15 15 -19 3 -26 -8 -6 -25 -5 -39 0 -18 7 -31
5 -48 -6 -13 -8 -24 -19 -24 -24 0 -5 -13 -11 -30 -14 -18 -4 -30 -13 -30 -22
0 -17 12 -19 55 -7 38 11 55 5 55 -18 0 -18 32 -45 42 -35 2 2 5 -6 6 -18 1
-12 3 -31 5 -42 3 -26 -30 -32 -49 -8 -13 17 -14 17 -20 -4 -4 -13 -11 -20
-20 -16 -8 3 -14 -1 -14 -11 0 -9 -5 -16 -11 -16 -5 0 -7 6 -3 13 4 6 -2 4
-12 -6 -15 -14 -16 -19 -6 -26 11 -6 10 -16 -2 -52 -9 -24 -16 -52 -16 -61 0
-26 -37 -42 -48 -22 -7 13 -13 14 -29 5 -11 -5 -23 -7 -27 -4 -10 10 -7 58 4
69 7 7 -2 9 -25 6 -30 -4 -36 -1 -45 22 -9 26 -11 26 -39 12 -28 -15 -52 -70
-25 -59 6 2 15 0 19 -6 3 -6 14 -11 25 -11 17 0 38 -46 25 -58 -3 -3 -5 0 -5
6 0 7 -5 12 -11 12 -7 0 -18 8 -25 18 -19 25 -38 2 -36 -45 1 -33 -1 -38 -22
-39 -37 -3 -79 -27 -82 -49 -2 -11 3 -37 11 -57 18 -46 11 -72 -16 -58 -30 17
-79 9 -79 -12 0 -10 -4 -18 -10 -18 -5 0 -10 6 -10 14 0 8 -7 16 -15 20 -8 3
-15 15 -15 26 0 11 -4 20 -10 20 -5 0 -10 8 -10 18 0 9 -7 26 -15 36 -8 10
-12 22 -10 26 3 5 -2 24 -10 43 -8 19 -12 37 -9 39 3 3 7 41 10 84 3 44 9 83
13 87 4 4 20 5 35 1 25 -6 31 -20 27 -65 -2 -20 45 -43 55 -27 4 7 3 8 -4 4
-7 -4 -12 -1 -12 9 0 16 39 36 53 28 4 -3 14 0 22 7 9 7 20 8 32 2 10 -5 24
-7 31 -5 6 3 12 0 12 -6 0 -6 5 -11 10 -11 6 0 10 7 10 15 0 8 -7 15 -15 15
-8 0 -14 3 -13 8 1 4 -3 17 -10 29 -11 19 -8 24 23 43 19 12 35 27 35 35 0 7
15 18 33 25 17 6 40 16 50 21 10 6 27 7 39 3 17 -5 19 -3 13 16 -5 16 -1 26
14 36 33 24 27 44 -14 44 -44 0 -47 23 -4 40 18 8 28 18 25 26 -3 7 -1 16 4
19 6 4 10 17 10 29 0 30 44 78 64 70 9 -3 16 -10 16 -15 0 -5 4 -9 9 -9 5 0 4
15 -2 35 -14 47 -4 53 33 21 17 -14 36 -26 41 -26 5 0 12 18 15 39 4 23 17 49
30 62 13 12 24 30 24 39 0 9 -24 41 -52 73 -63 68 -121 87 -196 66 l-43 -12 7
-41 c4 -23 7 -55 6 -73 -2 -25 5 -38 35 -62 20 -17 34 -33 31 -36 -5 -6 -43
-13 -76 -14 -9 -1 -11 -8 -7 -21 5 -14 2 -20 -10 -20 -23 0 -65 -30 -65 -47 0
-8 -7 -13 -17 -11 -10 2 -17 11 -17 20 1 10 -5 14 -17 11 -14 -4 -19 0 -19 16
0 22 19 28 36 11 7 -7 16 -4 29 10 12 13 14 20 6 20 -7 0 -25 9 -40 19 -15 11
-47 21 -72 23 -54 4 -51 19 8 36 48 14 49 15 57 82 l6 45 -23 -27 c-21 -26
-24 -27 -39 -12 -11 11 -36 17 -75 18 -32 1 -64 5 -70 9 -7 5 -17 5 -23 2 -5
-3 -21 18 -36 47 -15 29 -40 70 -57 91 -30 39 -30 39 -6 35 15 -2 25 2 26 12
3 12 -8 15 -52 16 -59 1 -69 -6 -32 -24 18 -9 19 -11 4 -11 -10 -1 -25 -8 -34
-17 -13 -13 -14 -19 -3 -40 12 -21 11 -27 -9 -48 -23 -24 -23 -25 -5 -56 22
-36 14 -45 -49 -56 -37 -6 -63 -34 -39 -42 19 -6 13 -36 -11 -53 -12 -9 -45
-22 -72 -29 -28 -7 -65 -24 -82 -39 -30 -25 -31 -28 -22 -75 5 -28 6 -53 2
-57 -5 -4 -29 -10 -55 -13 -43 -6 -51 -4 -73 18 -22 22 -29 24 -45 14 -16 -10
-23 -10 -36 4 -15 15 -18 15 -45 -1 -16 -9 -29 -24 -29 -33 0 -10 -5 -18 -11
-18 -7 0 -9 10 -7 25 3 14 2 28 -2 30 -9 6 -20 -44 -13 -61 2 -7 14 -15 26
-18 16 -4 19 -8 10 -17 -15 -15 -103 9 -103 28 0 7 4 13 9 13 12 0 41 57 41
80 0 10 -24 36 -54 59 -69 53 -86 89 -86 179 0 54 -4 75 -20 94 -19 25 -19 25
2 66 12 27 27 42 38 42 24 0 106 86 131 137 10 21 31 44 46 51 42 19 95 50
106 61 6 6 42 11 79 11 61 0 68 2 68 20 0 16 7 20 33 20 43 0 84 -35 66 -56
-19 -23 2 -37 36 -24 30 11 61 8 135 -15 25 -8 71 -22 103 -31 60 -18 77 -35
77 -78 l0 -25 70 35 c77 38 160 48 160 19 0 -34 31 -72 80 -99 l52 -28 55 17
c44 14 60 15 75 6 10 -6 18 -7 18 -3 0 5 21 8 46 7 55 -1 65 10 31 39 -25 21
-31 33 -28 68 1 19 61 84 73 81 11 -4 58 73 58 93 0 13 6 15 28 9 37 -10 124
-7 136 5 37 37 -3 80 -74 80 -25 0 -81 9 -125 20 -75 18 -84 19 -134 4 -43
-12 -63 -13 -100 -4 -25 6 -73 12 -106 14 -33 2 -80 9 -105 16 -55 16 -101 15
-137 -3 -20 -9 -54 -11 -118 -7 -49 3 -135 -1 -189 -7 -70 -9 -103 -10 -112
-2 -8 7 -31 7 -66 2 -81 -13 -234 -9 -253 7 -11 9 -19 10 -23 3 -8 -12 -188
-12 -213 1 -13 6 -20 0 -29 -28 -10 -32 -9 -39 15 -71 15 -19 23 -35 17 -35
-6 0 -14 5 -17 10 -7 11 -45 13 -68 4 -9 -3 -13 -13 -10 -25 7 -26 -14 -49
-44 -49 -13 0 -22 -4 -19 -9 6 -9 -33 -50 -47 -49 -9 0 -61 -19 -94 -35 -13
-6 -23 -18 -23 -28 0 -14 -15 -59 -26 -77 -4 -6 -96 -12 -106 -6 -17 10 11 31
36 27 13 -3 27 1 31 8 6 9 3 11 -7 6 -9 -3 -19 -3 -23 1 -12 12 -55 8 -55 -5
0 -7 -3 -13 -7 -13 -21 1 -34 20 -39 56 -7 51 -21 79 -64 134 -20 25 -43 61
-52 81 -14 31 -20 36 -42 32 -15 -3 -37 2 -51 11 -13 9 -32 16 -41 16 -10 0
-26 7 -36 17 -17 15 -17 18 -2 34 15 17 15 18 -10 25 -14 3 -26 12 -26 19 0 7
-7 19 -16 26 -15 12 -16 11 -9 -10 6 -20 4 -23 -9 -18 -9 4 -16 2 -16 -3 0 -6
6 -10 13 -10 6 -1 -4 -8 -23 -18 -19 -10 -57 -39 -83 -65 -44 -43 -87 -61 -87
-37 0 6 5 10 10 10 16 0 12 40 -6 58 -15 14 -15 17 0 28 9 6 26 10 36 7 17 -4
20 0 20 25 0 41 -13 47 -36 17z m412 -900 c16 -5 25 -90 16 -140 -6 -31 -12
-41 -30 -43 -12 -2 -22 -7 -22 -11 0 -4 -24 -6 -52 -3 -29 2 -64 -1 -78 -7
-17 -7 -20 -10 -8 -10 14 -1 16 -6 9 -24 -13 -33 1 -52 26 -39 35 19 85 -33
53 -53 -6 -4 -18 -1 -26 6 -8 6 -17 9 -21 5 -3 -3 -1 -6 5 -6 7 0 12 -9 12
-21 0 -16 -5 -20 -27 -17 -27 3 -28 2 -25 -42 2 -25 7 -49 12 -54 15 -15 12
-26 -7 -27 -14 0 -15 -2 -3 -6 8 -3 17 -9 20 -12 3 -4 16 -12 30 -18 22 -10
22 -12 5 -13 -15 0 -11 -5 15 -17 42 -20 50 -30 50 -61 0 -15 7 -26 20 -29 16
-4 18 -9 9 -24 -7 -14 -5 -24 8 -38 21 -22 29 -18 80 41 34 40 35 62 2 85 -17
13 -35 80 -31 118 6 54 13 67 33 62 10 -3 33 0 49 6 25 9 33 8 47 -5 15 -16
15 -18 0 -24 -15 -5 -15 -9 -5 -22 11 -13 10 -14 -9 -8 -12 4 -31 2 -42 -4
-18 -9 -21 -6 -30 22 -7 24 -9 27 -10 11 -1 -32 9 -53 28 -53 13 0 13 -2 2 -9
-7 -5 -11 -13 -7 -19 3 -5 -1 -13 -9 -16 -14 -5 -14 -8 -1 -28 8 -13 18 -41
21 -63 5 -32 3 -44 -15 -62 -11 -13 -16 -23 -11 -23 5 0 13 5 16 10 3 6 20 10
36 10 16 0 41 7 54 16 23 15 25 15 31 0 4 -10 -2 -23 -14 -34 -11 -9 -23 -29
-26 -44 -5 -22 -3 -28 11 -29 17 -1 17 -2 1 -6 -10 -2 -18 -13 -18 -24 0 -18
-5 -19 -55 -15 -39 4 -58 2 -68 -9 -13 -12 -17 -12 -32 5 -10 11 -26 20 -37
20 -22 0 -23 18 -1 42 9 10 11 18 5 18 -6 0 -14 9 -17 20 -8 24 -25 17 -25
-10 0 -40 -103 -67 -130 -35 -10 12 -16 13 -27 4 -7 -7 -15 -10 -16 -8 -1 2
-10 14 -20 25 -17 21 -17 22 9 53 24 29 26 34 13 58 -7 14 -24 29 -37 34 -14
5 -35 18 -48 28 -21 16 -22 20 -9 37 21 28 18 34 -18 34 -18 0 -37 4 -42 9 -6
5 -28 0 -52 -11 -36 -16 -43 -23 -43 -47 0 -16 6 -34 14 -41 23 -18 10 -35
-40 -49 -36 -11 -43 -17 -39 -32 3 -10 0 -29 -7 -41 -7 -13 -11 -29 -10 -35 2
-8 -3 -10 -14 -6 -10 4 -20 0 -26 -11 -6 -11 -17 -15 -31 -12 -12 3 -16 3 -9
0 20 -9 14 -26 -7 -19 -11 3 -25 -1 -34 -10 -9 -8 -20 -15 -26 -15 -6 0 -11
-4 -11 -10 0 -17 -22 -11 -55 14 -30 23 -33 32 -44 113 -7 58 -8 89 -1 91 6 2
10 12 10 23 0 10 5 19 10 19 6 0 10 9 10 20 0 11 9 25 20 32 11 7 20 17 20 23
0 38 28 92 71 140 51 55 73 66 82 43 3 -7 6 -1 6 13 1 31 22 52 48 47 11 -1
36 15 62 40 l44 43 22 -21 c31 -29 61 -25 108 16 25 21 49 33 59 30 10 -2 18
0 18 5 0 5 -7 9 -15 9 -8 0 -15 6 -15 14 0 8 -9 18 -21 21 -16 5 -18 10 -10
18 7 7 15 12 19 12 4 0 24 17 45 38 l39 37 86 -6 c48 -3 92 -7 98 -9z m-806
-254 c19 -11 45 -24 57 -30 29 -13 31 -91 2 -117 -10 -9 -19 -25 -19 -34 0
-12 -11 -20 -31 -24 -54 -11 -69 -7 -100 25 -38 38 -49 68 -49 125 0 41 3 46
33 59 44 19 66 18 107 -4z m1503 -119 c-2 -7 9 -12 27 -12 26 0 30 -4 30 -28
0 -15 -5 -33 -11 -39 -13 -13 -4 -63 11 -63 6 0 10 5 10 10 0 6 -5 10 -12 10
-6 0 -9 2 -6 5 9 9 38 -7 38 -21 0 -8 10 -14 25 -14 22 0 25 4 25 35 0 30 2
34 14 23 8 -7 12 -15 10 -17 -2 -2 4 -10 13 -16 15 -11 15 -13 -5 -19 -12 -4
-22 -14 -22 -21 0 -8 -10 -17 -23 -20 -24 -6 -51 -56 -48 -88 2 -11 -8 -21
-26 -27 -15 -6 -36 -15 -47 -21 -10 -6 -16 -7 -13 -2 3 5 2 15 -2 22 -6 9 -10
5 -15 -13 -8 -33 35 -117 77 -151 30 -23 30 -25 17 -51 -21 -38 -52 -50 -91
-33 -18 7 -44 13 -59 13 -15 1 -34 7 -43 15 -26 21 -20 8 14 -35 44 -56 60
-99 49 -130 -13 -33 -36 -40 -60 -19 -11 10 -28 15 -40 12 -11 -3 -18 -1 -14
4 3 5 1 9 -5 9 -5 0 -13 -5 -16 -10 -11 -18 -31 6 -69 82 -33 64 -39 97 -15
83 5 -4 9 1 9 9 0 11 9 16 30 16 17 0 30 -5 30 -11 0 -5 5 -7 10 -4 32 20 -38
58 -105 57 -50 -1 -52 1 -29 49 31 63 38 67 101 57 31 -5 60 -11 64 -14 4 -2
11 11 14 30 9 43 51 65 91 48 23 -11 24 -10 19 16 -3 15 -11 44 -17 65 -9 29
-9 46 0 69 6 16 8 36 6 43 -4 8 7 20 25 30 30 15 42 35 20 35 -5 0 -7 5 -4 10
3 6 -1 13 -9 16 -9 3 -13 10 -10 16 8 13 40 4 37 -10z m1513 -67 c8 -8 21 -12
29 -9 20 8 20 -49 1 -66 -8 -6 -16 -28 -18 -47 -2 -29 -10 -40 -36 -55 -32
-18 -33 -18 -54 2 -22 20 -32 24 -55 21 -7 -1 -13 5 -13 14 0 12 8 14 42 9 28
-5 39 -4 34 4 -3 5 -1 12 6 14 8 3 12 22 10 56 -1 40 2 53 16 61 22 13 21 13
38 -4z m-1206 -97 c0 -13 4 -29 9 -37 11 -17 -14 -88 -38 -111 -23 -23 -64
-50 -74 -50 -5 0 -6 21 -3 48 4 26 7 63 9 82 1 27 6 34 20 32 18 -3 23 13 7
23 -17 10 -11 23 13 28 49 9 57 7 57 -15z m-1100 -268 c13 -8 13 -11 1 -19 -8
-5 -11 -16 -8 -24 3 -9 -2 -21 -11 -29 -12 -10 -14 -10 -8 0 8 13 2 16 -48 27
-26 5 -28 4 -17 -9 8 -9 12 -16 10 -17 -2 0 -15 -3 -29 -6 -14 -2 -29 -5 -35
-7 -5 -1 -16 -5 -23 -10 -7 -4 -28 -5 -46 -2 -26 5 -35 3 -40 -10 -5 -14 -1
-16 33 -10 31 5 40 3 46 -11 3 -10 2 -19 -4 -21 -5 -2 -7 -10 -4 -18 3 -7 -2
-17 -11 -20 -11 -4 -15 -14 -12 -31 4 -18 1 -23 -9 -20 -7 3 -15 -3 -18 -15
-4 -15 -11 -18 -29 -13 -35 11 -45 24 -28 36 13 8 13 11 -2 20 -10 5 -18 19
-18 29 0 11 -4 20 -10 20 -5 0 -9 -3 -9 -7 6 -38 -8 -41 -45 -10 l-27 24 18
32 c14 24 24 31 43 29 14 -1 30 1 35 4 16 10 133 48 147 48 7 0 36 11 63 24
56 27 73 30 95 16z m-522 -126 c47 -5 59 -10 55 -21 -3 -9 2 -16 15 -20 20 -5
21 -12 13 -65 0 -5 -8 -8 -16 -8 -8 0 -15 -7 -15 -15 0 -14 -29 -21 -67 -16
-6 1 -14 -3 -18 -8 -6 -11 -52 28 -48 41 1 3 -11 1 -27 -5 -29 -11 -55 -51
-45 -68 4 -5 1 -9 -4 -9 -6 0 -11 8 -11 17 0 20 -13 9 -16 -14 -4 -27 22 -46
46 -33 17 9 20 8 20 -8 0 -10 -5 -23 -12 -30 -9 -9 -8 -12 4 -12 11 0 15 -6
11 -20 -3 -11 -9 -20 -14 -20 -5 0 -10 9 -10 20 -1 11 -3 25 -4 30 -1 6 -3 13
-4 16 -2 13 -32 -20 -47 -52 -19 -39 -27 -42 -46 -15 -8 11 -26 22 -41 25 -21
4 -27 1 -27 -14 0 -10 -3 -25 -6 -34 -4 -11 5 -18 35 -26 23 -6 41 -15 41 -20
0 -5 9 -12 20 -15 11 -3 20 -15 20 -25 0 -33 12 -50 34 -50 11 0 29 -7 40 -15
16 -12 17 -19 8 -62 -6 -26 -10 -56 -10 -65 2 -23 18 -24 18 -1 0 15 1 15 14
-2 7 -11 20 -16 29 -12 13 5 15 -2 14 -38 -1 -24 -5 -38 -9 -32 -5 8 -8 5 -9
-8 -3 -51 -9 -78 -18 -89 -5 -6 -6 -18 -2 -25 15 -24 0 -51 -28 -51 -24 -1
-24 -2 -8 -14 24 -18 21 -26 -7 -24 -14 1 -27 10 -29 19 -3 9 -14 22 -26 28
-18 10 -22 9 -31 -13 -8 -23 -12 -24 -64 -19 -31 3 -56 3 -56 0 0 -18 25 -57
37 -57 11 0 11 -3 1 -14 -11 -11 -16 -10 -30 7 -10 11 -18 25 -19 31 0 6 -4 2
-9 -9 -7 -17 -9 -18 -9 -2 -1 9 5 26 12 38 10 17 9 22 -5 33 -10 7 -18 19 -18
27 0 8 -7 23 -15 33 -8 11 -15 28 -15 39 0 14 -5 18 -20 14 -11 -3 -20 -1 -20
5 0 5 -4 7 -8 4 -4 -3 -7 14 -7 37 1 23 -2 45 -7 48 -5 3 -10 28 -11 56 -2 35
-10 57 -25 73 -24 26 -27 36 -13 44 5 3 12 20 15 38 8 40 38 78 61 78 9 0 19
9 22 20 3 11 8 20 12 20 3 0 12 4 20 9 11 7 10 13 -3 34 -12 17 -16 43 -15 82
2 56 4 58 57 103 30 26 66 57 79 70 16 15 37 22 66 23 23 1 53 5 67 9 33 11
64 11 138 4z m230 -207 c19 -1 14 -18 -8 -24 -11 -3 -20 -10 -20 -15 0 -5 5
-6 10 -3 6 3 10 -4 10 -18 0 -26 22 -52 34 -40 4 4 4 0 1 -9 -4 -9 0 -18 9
-21 9 -4 16 -13 16 -20 0 -8 8 -21 17 -28 9 -8 14 -9 10 -3 -3 6 0 11 7 11 8
0 12 -7 8 -15 -4 -11 -1 -13 8 -7 9 6 12 4 8 -6 -5 -12 1 -14 23 -11 24 4 29
1 29 -17 0 -11 -5 -21 -11 -21 -8 0 -8 -4 0 -14 6 -7 8 -22 4 -31 -3 -10 -2
-16 3 -13 5 4 9 -14 9 -39 0 -43 0 -44 -12 -16 l-12 28 -1 -29 c0 -23 -3 -27
-20 -23 -12 3 -24 -1 -31 -11 -7 -12 -12 -14 -15 -4 -3 6 -12 12 -20 12 -8 0
-14 -6 -14 -12 -1 -21 -68 67 -75 98 -3 11 -10 40 -16 67 -10 46 -23 60 -32
35 -2 -7 -8 -10 -12 -6 -4 4 -4 12 0 19 5 6 7 45 6 85 -2 63 1 76 19 94 14 14
28 19 38 15 9 -4 23 -8 30 -8z m3471 -603 c53 -34 82 -104 45 -104 -21 0 -13
-20 15 -38 21 -15 22 -14 18 9 -2 13 -2 18 0 11 3 -8 13 -12 24 -9 30 8 41
-32 32 -117 -6 -53 -12 -72 -24 -74 -15 -3 -24 4 -57 43 -21 24 -32 18 -32
-20 0 -23 8 -42 25 -60 28 -27 45 -31 62 -14 31 31 46 -39 17 -80 l-16 -22
-22 20 c-13 13 -29 18 -42 15 -16 -4 -23 0 -29 18 -21 61 -23 63 -24 15 -1
-40 -6 -54 -35 -83 -28 -29 -37 -33 -57 -25 l-24 10 23 7 c13 4 22 14 22 25 0
11 6 19 14 19 24 0 30 22 10 37 -19 14 -19 15 0 28 17 13 17 15 3 29 -9 9 -27
16 -41 16 -26 0 -35 -13 -16 -25 18 -11 10 -31 -27 -71 -25 -27 -48 -41 -67
-42 -16 -1 -34 -6 -41 -12 -18 -15 -117 0 -142 22 -17 16 -23 17 -30 6 -21
-34 -42 -41 -75 -27 -18 7 -36 17 -40 23 -4 6 -10 4 -14 -7 -10 -26 -43 -21
-54 9 -6 14 -8 30 -4 35 3 5 1 9 -5 9 -6 0 -9 17 -6 40 2 22 0 40 -4 40 -8 0
2 82 14 113 8 19 21 22 30 7 3 -6 20 -17 36 -26 28 -14 33 -14 79 9 44 22 47
26 32 40 -14 15 -13 17 12 27 15 5 45 7 67 4 32 -5 40 -3 45 12 3 11 11 30 17
44 6 14 11 39 11 57 1 35 28 62 62 63 12 0 35 7 50 15 39 21 115 11 163 -21z
m-3224 -120 c11 -15 14 -15 38 1 25 16 27 16 57 -5 25 -17 28 -25 19 -36 -6
-8 -9 -23 -6 -34 3 -11 2 -18 -3 -15 -4 3 -14 -3 -21 -12 -12 -14 -11 -15 11
-8 14 4 33 14 43 23 9 8 17 12 17 8 0 -4 7 0 16 8 28 28 46 20 39 -17 -5 -25
-2 -37 11 -48 14 -11 18 -12 22 -1 3 9 10 4 21 -14 18 -30 16 -83 -5 -118 -11
-19 -13 -19 -29 -3 -11 11 -14 24 -10 35 5 12 9 13 12 4 3 -6 9 -10 14 -6 16
10 10 24 -11 24 -11 0 -20 7 -20 15 0 8 -4 15 -10 15 -5 0 -10 -4 -10 -10 0
-5 -7 -10 -17 -10 -9 0 -14 -3 -10 -6 3 -4 -1 -20 -9 -36 -9 -17 -13 -41 -10
-53 3 -13 2 -34 -3 -47 -11 -28 -92 -88 -119 -88 -11 0 -33 -7 -48 -15 -27
-14 -30 -14 -39 2 -15 27 -103 113 -115 113 -5 0 -10 7 -10 15 0 8 -4 15 -10
15 -5 0 -10 -5 -10 -12 0 -8 -7 -6 -17 5 -14 13 -15 21 -7 35 12 19 7 26 -32
48 -13 8 -26 9 -37 2 -13 -7 -17 -5 -17 6 0 24 22 66 31 60 5 -3 9 0 9 6 0 7
7 10 14 7 10 -4 13 -1 9 9 -3 7 0 14 6 14 6 0 11 9 11 21 0 12 5 19 13 16 6
-2 11 -12 10 -22 -1 -13 7 -10 31 14 36 35 42 37 49 17 4 -10 1 -13 -7 -10 -8
3 -17 1 -20 -4 -3 -6 12 -9 37 -7 54 3 55 3 37 15 -12 8 -11 10 6 10 12 0 32
9 45 20 l24 21 -39 -16 c-48 -19 -46 -19 -46 8 0 15 11 27 33 38 43 22 48 22
62 3z m689 -85 c32 -6 53 -14 47 -18 -6 -4 -14 -21 -17 -39 -5 -25 -3 -32 10
-32 9 0 16 8 16 18 0 19 1 19 83 13 11 -1 8 -31 -3 -31 -5 0 -10 -9 -10 -19 0
-11 -4 -22 -8 -25 -5 -3 -9 -24 -10 -46 -1 -23 -4 -46 -8 -51 -10 -16 -24 -9
-30 16 -3 14 -10 22 -15 19 -5 -3 -9 1 -9 8 0 7 -18 30 -40 51 -34 33 -43 38
-70 32 -20 -4 -30 -3 -30 5 0 6 -4 8 -10 5 -5 -3 -10 2 -10 12 0 10 -9 24 -20
31 -11 7 -20 19 -20 27 0 22 42 47 70 41 14 -3 51 -10 84 -17z m3188 -261 c20
-10 33 -34 62 -113 20 -55 36 -111 36 -124 0 -13 9 -33 19 -45 79 -86 108
-133 114 -183 6 -55 1 -69 -19 -52 -26 21 -41 -16 -19 -50 7 -12 -22 -41 -41
-41 -8 0 -13 4 -9 9 3 6 -3 15 -14 20 -29 16 -34 44 -16 86 8 21 15 47 15 59
0 21 -1 21 -18 -2 -12 -16 -21 -19 -28 -12 -7 7 -18 5 -36 -10 -34 -26 -40
-25 -36 8 2 19 8 27 21 26 21 -2 21 0 1 31 -9 14 -25 25 -35 25 -12 0 -16 5
-13 14 3 9 -5 22 -21 32 -107 70 -112 117 -24 206 19 19 33 26 45 21 14 -5 16
-2 10 18 -4 13 -8 31 -10 39 -2 8 -13 16 -24 18 -22 3 -28 13 -15 25 9 10 26
9 55 -5z m-30 -481 c-2 -9 2 -26 8 -37 9 -16 15 -18 30 -10 31 16 42 12 28
-10 -8 -12 -22 -19 -33 -18 -14 2 -21 -4 -23 -19 -2 -13 -8 -23 -13 -23 -11 0
-1 -49 14 -67 6 -9 6 -13 -1 -13 -5 0 -12 -13 -15 -30 -5 -21 -14 -31 -32 -36
-15 -4 -30 -17 -36 -31 -5 -13 -13 -21 -19 -18 -5 3 -10 -3 -10 -14 0 -22 -8
-25 -34 -15 -19 7 -20 26 -1 79 18 51 7 61 -41 40 -83 -37 -100 -44 -127 -50
-15 -4 -30 -11 -33 -16 -3 -5 -14 -9 -25 -9 -31 0 -61 -19 -52 -33 13 -21 12
-37 -3 -37 -8 0 -14 9 -14 20 0 23 -22 26 -43 6 -11 -12 -15 -11 -26 6 -13 20
-13 20 -27 -1 -17 -23 -10 -45 11 -37 22 8 28 -31 9 -60 -16 -24 -19 -25 -25
-8 -7 18 -8 18 -8 -1 -1 -17 -3 -18 -11 -5 -9 13 -11 13 -20 0 -6 -10 -10 -11
-10 -3 0 7 -11 15 -24 19 -14 3 -27 12 -30 20 -3 7 -21 20 -41 28 -32 14 -49
46 -24 46 6 0 9 -7 5 -15 -3 -8 -1 -15 4 -15 5 0 15 7 24 15 8 8 25 15 38 15
14 0 27 9 33 23 6 12 16 21 23 19 7 -1 12 4 12 11 0 23 -13 28 -30 12 -18 -17
-54 -10 -43 8 3 6 1 7 -5 3 -6 -4 -22 -4 -36 0 -27 6 -28 36 -2 62 20 20 64 7
76 -21 5 -12 9 -16 9 -9 1 6 8 12 16 12 8 0 15 4 15 10 0 5 6 7 13 4 17 -6 67
12 67 25 0 5 -10 11 -22 14 -22 3 -22 4 5 15 16 7 25 17 22 22 -14 23 28 21
53 -2 22 -20 36 -25 72 -23 61 3 60 3 54 20 -4 11 3 19 25 26 17 6 31 17 31
24 0 7 17 26 38 41 32 25 46 29 100 29 50 1 66 4 74 18 12 22 34 17 30 -6z
m-2015 -298 c-2 -40 1 -48 13 -43 8 3 28 8 44 11 23 4 28 2 23 -11 -8 -19 12
-68 24 -60 5 3 9 0 9 -5 0 -6 6 -11 14 -11 7 0 19 -7 26 -15 15 -18 31 -20 24
-2 -3 8 4 12 21 12 20 -1 31 -13 53 -56 15 -30 36 -59 48 -64 31 -15 52 -40
60 -69 3 -14 10 -26 16 -26 5 0 6 9 3 20 -4 11 -2 20 4 20 6 0 11 -18 11 -41
0 -33 3 -40 16 -35 8 3 12 2 9 -4 -3 -6 5 -10 18 -10 28 0 60 -40 51 -64 -3
-9 -3 -24 1 -33 10 -24 10 -87 1 -102 -5 -7 -5 -15 -2 -18 3 -3 1 -12 -6 -20
-9 -11 -13 -11 -27 1 -14 13 -16 12 -17 -10 -2 -18 2 -24 12 -20 8 3 14 -1 14
-9 0 -8 -6 -15 -12 -15 -9 0 -13 -21 -14 -67 -3 -125 -8 -150 -34 -158 -27 -9
-26 -85 1 -85 25 0 30 -13 15 -42 -8 -16 -10 -31 -5 -39 14 -22 11 -28 -11
-22 -14 4 -20 0 -20 -10 0 -22 20 -32 31 -16 5 8 9 10 9 5 0 -4 -10 -20 -22
-35 -22 -25 -58 -31 -58 -9 0 7 -5 6 -14 -1 -12 -10 -17 -8 -25 8 -14 26 -15
63 -1 41 16 -26 22 -3 9 42 -7 23 -13 44 -13 44 -1 1 -12 5 -26 9 -20 6 -23 5
-12 -6 19 -21 14 -29 -18 -29 -16 0 -30 5 -30 10 0 23 -18 7 -24 -21 -4 -24
-9 -29 -18 -21 -9 6 -22 6 -38 0 -20 -7 -22 -11 -10 -18 13 -8 12 -10 -2 -10
-10 0 -18 4 -18 9 0 18 -67 84 -74 73 -15 -24 -36 -13 -36 19 0 26 -3 30 -17
24 -10 -5 -26 -8 -35 -9 -12 0 -18 -9 -18 -26 0 -14 -9 -36 -20 -50 -23 -30
-25 -50 -5 -50 8 0 15 -4 15 -10 0 -13 -17 -13 -25 0 -4 6 -14 8 -24 5 -25 -8
-64 38 -67 80 -2 20 -6 40 -9 45 -3 5 6 33 19 62 14 29 27 61 31 72 5 17 7 17
23 4 9 -8 24 -18 32 -22 8 -4 26 -13 39 -21 31 -17 41 -11 41 26 0 32 -13 58
-47 97 -13 14 -23 28 -23 33 0 4 -24 35 -53 68 -42 49 -55 73 -65 117 -6 31
-9 61 -6 65 3 5 0 9 -6 9 -7 0 -14 -9 -17 -20 -3 -11 -10 -20 -17 -20 -6 0 -4
-5 4 -10 12 -8 11 -10 -6 -10 -11 0 -29 7 -40 15 -24 18 -35 19 -32 3 5 -21
26 -38 46 -38 15 0 22 -9 27 -31 4 -19 15 -33 26 -36 23 -6 24 -13 4 -39 -8
-10 -15 -27 -15 -36 0 -12 -7 -17 -22 -15 -39 4 -50 22 -44 76 5 47 4 49 -24
61 -16 6 -29 19 -28 28 0 32 -12 67 -27 78 -27 20 -30 80 -8 127 26 55 43 126
43 183 0 88 63 164 136 164 24 0 55 -5 71 -11 15 -6 43 -15 61 -19 28 -7 32
-5 33 14 1 20 1 20 7 1 4 -11 14 -20 22 -20 12 0 14 12 12 54 -2 33 1 50 7 46
6 -3 9 -28 8 -56z m-2005 28 c11 4 24 0 29 -8 12 -19 11 -32 -1 -24 -5 3 -10
1 -10 -4 0 -6 5 -11 10 -11 6 0 10 -9 10 -21 0 -12 5 -19 13 -16 6 2 11 11 9
20 -2 11 2 15 13 11 17 -7 20 -30 6 -38 -5 -4 -6 -18 -2 -34 6 -19 14 -27 29
-26 29 1 28 -14 0 -18 -31 -4 -35 -28 -5 -28 14 0 28 -7 31 -16 3 -8 14 -14
23 -13 43 4 65 -1 60 -15 -4 -11 5 -13 44 -11 28 1 61 -2 74 -9 26 -12 35 -29
11 -20 -8 3 -19 -3 -26 -15 -6 -12 -19 -21 -30 -21 -22 0 -65 -64 -56 -85 4
-11 0 -12 -17 -6 -13 5 -34 3 -54 -5 -29 -13 -36 -12 -73 7 -22 12 -40 27 -40
35 0 8 -6 14 -13 14 -22 0 -67 24 -67 37 0 6 -6 14 -12 16 -8 3 -6 6 5 6 9 1
17 -6 17 -14 0 -8 5 -15 11 -15 6 0 9 7 5 15 -7 18 10 20 18 3 4 -7 4 4 2 25
-3 20 -1 37 3 37 5 0 6 11 3 25 -2 14 -9 25 -14 25 -6 0 -8 9 -5 19 3 13 0 18
-8 15 -7 -3 -15 4 -18 15 -7 27 2 62 14 55 5 -3 9 1 9 8 0 9 3 9 10 -2 8 -13
10 -13 10 2 0 9 -8 22 -17 27 -15 9 -16 12 -4 20 11 7 9 10 -8 16 -11 3 -21
14 -20 23 0 9 3 12 5 6 3 -7 14 -9 26 -7z m1504 -47 c14 0 34 4 44 10 15 8 20
6 26 -13 4 -12 17 -39 30 -59 24 -37 20 -53 -10 -42 -9 3 -16 1 -16 -5 0 -19
-38 -12 -45 9 -7 23 -25 27 -25 5 0 -8 -18 -23 -40 -32 -42 -19 -67 -50 -30
-38 33 11 22 -12 -17 -35 -21 -12 -35 -19 -31 -14 10 9 -55 54 -77 54 -9 0
-19 -9 -22 -20 -5 -19 -8 -18 -39 12 -53 51 -67 136 -28 169 11 9 14 7 14 -10
0 -21 12 -26 53 -22 12 2 17 -5 17 -26 0 -21 3 -24 9 -13 6 8 7 18 5 22 -8 12
16 31 56 45 29 11 36 11 43 -3 5 -9 16 -13 28 -9 13 4 19 2 19 -8 0 -8 11 -17
25 -19 18 -4 25 -1 25 10 0 9 -7 13 -20 9 -11 -3 -20 -1 -20 3 0 5 -2 14 -3
22 -2 7 -2 10 0 6 3 -5 16 -8 29 -8z m1054 -9 c0 -5 -6 -12 -12 -15 -7 -3 -2
-3 11 0 15 4 21 2 17 -4 -3 -6 3 -13 14 -17 11 -3 20 -14 20 -23 0 -21 27 -62
41 -62 6 0 7 5 4 10 -3 6 -1 10 5 10 7 0 9 -7 6 -17 -4 -9 -2 -19 4 -23 6 -4
6 -17 -1 -41 -5 -18 -12 -45 -15 -59 -3 -13 -9 -29 -13 -35 -5 -5 -11 -23 -15
-39 -9 -36 -19 -27 -20 18 -1 26 2 32 12 24 16 -14 15 2 -2 24 -7 10 -16 15
-19 11 -4 -3 -7 -1 -7 5 0 6 -12 17 -27 24 -24 11 -28 20 -29 56 0 24 -5 47
-11 50 -14 9 -43 67 -43 86 0 8 8 17 18 19 31 8 62 7 62 -2z m-3607 -194 c-3
-5 2 -16 11 -26 12 -14 14 -24 6 -52 -6 -18 -10 -36 -10 -38 0 -2 12 0 26 3
19 5 25 3 22 -6 -3 -7 -13 -13 -24 -13 -10 0 -25 -4 -32 -9 -11 -6 -9 -12 8
-28 12 -11 19 -22 16 -25 -7 -8 -46 7 -46 18 0 5 -9 9 -20 9 -11 0 -20 7 -20
15 0 8 -6 12 -13 9 -7 -2 -24 7 -37 21 -18 19 -21 28 -12 37 9 9 12 8 12 -4 0
-14 19 -28 39 -28 11 0 8 84 -3 91 -21 16 3 35 42 35 22 -1 38 -5 35 -9z
m4700 -65 c16 -7 51 -12 78 -12 l49 0 0 -45 c0 -30 -8 -55 -24 -80 -14 -20
-26 -40 -28 -45 -6 -19 -147 -12 -172 9 -8 7 -20 10 -26 6 -6 -4 -24 7 -41 23
-35 34 -33 65 7 103 13 12 24 28 24 35 0 22 85 26 133 6z m-3700 -16 c3 -8 1
-17 -6 -20 -7 -2 -5 -5 4 -5 9 -1 22 -8 29 -16 7 -8 15 -13 19 -11 4 3 13 1
21 -5 11 -6 8 -9 -12 -9 -21 0 -25 -4 -21 -20 4 -14 0 -20 -11 -20 -29 0 -16
-20 14 -21 34 -2 37 -2 67 -13 13 -4 22 -10 20 -14 -1 -4 8 -23 20 -43 36 -58
34 -80 -10 -104 -28 -15 -40 -29 -48 -59 -10 -39 -30 -66 -46 -66 -16 0 -42
-56 -49 -108 -6 -46 -8 -50 -25 -41 -13 7 -19 6 -19 -1 0 -6 -4 -9 -9 -5 -5 3
-12 1 -16 -5 -3 -5 -1 -10 4 -10 6 0 11 -5 11 -12 0 -6 7 -19 16 -29 14 -16
14 -21 -5 -60 -12 -23 -21 -44 -21 -46 0 -2 15 -3 34 -3 18 0 50 -7 69 -15 20
-8 47 -15 60 -15 22 0 25 -5 31 -56 7 -60 1 -84 -10 -40 -3 14 -10 26 -15 26
-5 0 -6 8 -2 18 5 14 3 13 -10 -3 -12 -15 -19 -17 -27 -8 -9 8 -7 16 7 30 19
19 18 19 -19 18 -36 -1 -69 -15 -35 -15 23 0 21 -17 -4 -30 -15 -8 -29 -8 -51
-1 -19 7 -35 7 -42 2 -6 -5 -28 -12 -48 -16 -34 -6 -39 -5 -47 16 -5 13 -10
19 -10 12 -1 -7 -16 -3 -41 10 -22 12 -40 29 -39 37 2 26 -13 60 -27 60 -20 0
-24 14 -13 53 7 27 14 35 27 31 9 -2 6 1 -8 8 -14 6 -27 13 -28 14 -2 1 -1 12
3 24 6 17 12 20 32 15 23 -5 25 -4 21 19 -4 22 -2 26 18 26 13 0 24 5 24 11 0
5 -6 7 -12 4 -7 -4 -4 1 6 9 11 9 22 12 26 7 3 -6 21 -6 45 1 22 5 50 11 61
12 13 0 19 6 17 14 -4 8 0 10 11 6 21 -8 20 5 -3 36 -16 20 -22 22 -34 12 -11
-9 -17 -10 -22 -2 -4 6 -22 9 -40 8 -39 -2 -56 9 -35 22 13 8 12 10 -2 10 -10
0 -18 5 -18 10 0 6 4 10 9 10 5 0 11 18 15 41 4 24 16 50 31 63 14 13 25 28
25 35 0 6 7 11 15 11 8 0 15 -4 15 -10 0 -5 12 -10 26 -10 14 0 23 4 19 10 -3
6 -1 10 6 10 8 0 9 3 0 13 -6 8 -8 16 -6 19 11 10 -30 2 -52 -10 -13 -7 -23
-9 -23 -4 0 5 12 14 26 21 15 6 24 15 20 18 -3 3 0 13 7 21 10 13 9 14 -11 3
-29 -16 -40 -7 -18 14 9 9 16 18 16 19 0 3 -21 7 -60 9 -32 2 -35 14 -6 31 14
9 21 7 29 -6 10 -14 12 -14 24 9 7 14 13 31 13 38 0 24 95 33 103 11z m-843
-166 c0 -5 12 -10 26 -10 22 0 25 -4 21 -21 -4 -15 1 -23 18 -31 14 -6 22 -14
20 -18 -3 -5 10 -4 29 0 27 6 37 4 51 -13 17 -19 17 -20 0 -13 -14 5 -16 2
-11 -20 6 -22 4 -25 -10 -20 -11 4 -15 2 -11 -8 8 -20 -19 -28 -72 -21 -32 4
-42 2 -39 -7 3 -7 18 -13 34 -13 19 -1 29 -6 29 -15 0 -9 -9 -15 -21 -14 -16
0 -20 -4 -16 -18 2 -10 8 -18 13 -18 17 0 9 -15 -13 -25 -22 -10 -28 -26 -32
-78 -3 -28 -48 -81 -60 -70 -3 4 -6 17 -6 30 0 16 -6 23 -20 23 -15 0 -26 12
-39 43 l-19 42 -8 -33 c-11 -41 -30 -42 -26 -1 1 20 -2 29 -13 29 -8 0 -15 6
-15 13 0 8 -11 20 -25 27 -24 13 -37 60 -16 60 5 0 7 9 4 20 -4 16 3 21 40 31
45 11 45 11 40 47 -4 21 -13 42 -22 49 -14 10 -14 13 -1 27 15 15 84 25 95 14
4 -3 18 0 33 8 32 17 42 17 42 4z m2009 -212 c14 -6 40 -12 58 -14 42 -4 75
-22 67 -36 -5 -8 -1 -9 12 -4 38 15 74 18 86 8 7 -5 22 -11 32 -13 20 -4 32
-39 14 -39 -6 0 -9 -19 -7 -44 3 -37 2 -42 -10 -33 -11 10 -13 8 -7 -13 4 -14
4 -20 -1 -15 -14 18 -50 15 -69 -6 -9 -10 -25 -19 -36 -19 -10 0 -18 -7 -18
-17 0 -9 -2 -14 -5 -12 -11 11 8 79 23 79 9 0 4 9 -14 22 -16 13 -33 28 -39
34 -15 18 -54 24 -83 13 l-26 -10 27 25 c31 28 31 30 16 57 -6 12 -18 19 -31
17 -16 -2 -21 3 -23 27 -2 17 -1 24 2 17 3 -7 17 -18 32 -24z m-56 -57 c-19
-5 -20 -8 -9 -23 7 -10 16 -16 20 -13 3 3 2 -1 -4 -7 -15 -18 -12 -23 16 -24
35 -2 38 -8 21 -36 -9 -14 -12 -31 -8 -42 6 -14 10 -16 15 -7 6 9 12 7 23 -9
13 -18 13 -24 2 -31 -11 -6 -10 -9 4 -15 9 -3 17 -15 17 -25 0 -22 0 -22 65
-5 l50 13 10 -41 c6 -22 16 -40 22 -39 20 4 22 -25 2 -30 -12 -3 -19 -14 -19
-30 0 -14 -3 -28 -7 -30 -14 -8 -86 5 -73 13 8 5 2 10 -15 14 -40 10 -42 0 -7
-35 18 -17 32 -38 32 -46 0 -24 27 -43 60 -43 17 0 38 -7 47 -16 14 -14 14
-16 -3 -29 -11 -8 -22 -15 -25 -15 -3 0 -4 -11 -1 -25 3 -18 0 -25 -11 -25 -8
0 -18 -7 -21 -16 -5 -14 -4 -15 8 -4 13 10 15 7 13 -19 -1 -20 -7 -31 -17 -31
-13 0 -13 -1 0 -10 12 -8 10 -10 -9 -10 l-24 0 27 -21 c14 -11 26 -30 25 -42
0 -21 -1 -21 -11 3 l-11 25 -7 -30 c-6 -25 -8 -26 -9 -7 0 13 -5 21 -9 18 -5
-3 -16 8 -25 24 -16 26 -20 28 -46 19 -16 -6 -31 -19 -34 -31 -7 -24 -27 -15
-27 13 0 10 -7 19 -15 19 -8 0 -12 -6 -9 -14 4 -11 -11 -14 -85 -13 -55 0 -88
4 -84 10 3 5 0 7 -8 5 -8 -3 -13 -12 -11 -22 4 -24 -27 -20 -50 7 l-20 22 5
-32 c3 -20 0 -36 -8 -43 -18 -15 -31 6 -16 24 9 11 8 14 -5 12 -9 0 -19 5 -21
12 -3 6 2 12 11 12 8 0 18 5 22 12 4 7 3 8 -5 4 -13 -9 -67 27 -69 46 -3 44
-8 58 -19 62 -18 7 -17 26 1 26 8 0 18 9 21 20 3 11 12 20 19 20 7 0 13 7 13
15 0 8 -4 12 -8 9 -4 -2 -10 5 -14 15 -4 12 -12 18 -21 14 -7 -3 -14 0 -14 6
0 6 -7 8 -15 5 -15 -6 -27 16 -41 73 -5 18 -4 24 5 19 7 -4 11 0 11 12 0 11 7
26 16 33 14 11 19 10 34 -9 21 -25 32 -29 28 -8 -3 14 37 56 54 56 4 0 8 -6 8
-12 0 -9 3 -8 10 2 6 10 24 15 53 14 39 -1 44 2 39 18 -2 10 -13 23 -23 29
-25 13 -24 34 1 59 22 22 70 27 71 8 0 -7 7 1 14 17 12 26 11 34 -6 61 -10 17
-19 35 -19 40 0 5 18 20 39 34 22 13 38 27 36 31 -3 3 8 4 23 1 25 -5 25 -6 5
-11z m1595 -211 c3 -33 -26 -55 -58 -45 -16 5 -19 1 -18 -25 1 -16 6 -30 12
-30 7 0 28 -8 48 -19 21 -10 40 -16 43 -13 3 4 14 26 25 49 10 24 25 43 33 43
8 0 17 10 20 21 5 20 7 20 22 5 15 -14 16 -25 6 -80 -6 -34 -11 -84 -11 -111
0 -41 -2 -46 -15 -35 -8 7 -15 19 -15 27 0 10 -4 11 -19 3 -33 -17 -61 -12
-61 11 0 17 -6 20 -37 19 -67 -3 -74 -1 -84 30 -6 17 -15 30 -20 30 -5 0 -18
9 -29 20 -11 11 -15 20 -10 20 6 0 10 7 10 15 0 8 -7 15 -17 15 -9 0 -13 3 -9
8 9 8 14 9 57 11 23 1 29 4 22 14 -25 34 13 58 77 49 20 -3 26 -10 28 -32z
m-1264 -69 c7 -11 66 -20 66 -10 0 4 9 7 20 6 17 -1 19 -6 14 -34 -7 -35 11
-63 40 -63 9 0 13 -6 10 -15 -4 -9 4 -19 21 -27 23 -10 29 -10 40 5 14 20 29
8 20 -15 -4 -9 4 -19 20 -26 30 -14 32 -33 5 -57 -18 -16 -20 -16 -26 -1 -8
22 -24 20 -24 -3 0 -11 -6 -21 -12 -24 -10 -4 -10 -7 0 -18 10 -11 12 -10 12
4 0 19 15 23 25 7 4 -6 11 -8 16 -5 5 4 9 -5 9 -19 l0 -25 -45 14 c-51 15 -52
15 -64 15 -9 0 -81 94 -81 105 0 3 9 1 19 -5 28 -15 31 -13 31 18 0 22 -7 30
-31 39 -23 9 -30 17 -25 28 10 26 -12 55 -39 53 -14 -1 -25 -8 -25 -15 0 -7
-7 -13 -15 -13 -18 0 -19 12 -4 27 8 8 8 17 0 31 -6 11 -11 23 -11 26 0 9 28
7 34 -3z m907 -155 c5 3 8 2 7 -3 -4 -15 23 -53 38 -53 10 0 13 -6 10 -17 -6
-20 32 -43 71 -43 13 0 23 -5 23 -11 0 -7 -11 -8 -30 -4 -29 6 -30 5 -25 -18
9 -34 -42 -56 -89 -39 -25 9 -41 9 -66 1 -29 -10 -35 -10 -47 6 -17 25 -17 55
2 55 8 0 15 7 15 15 0 8 -4 15 -10 15 -5 0 -10 9 -10 19 0 25 77 41 91 20 7
-11 9 -9 9 7 0 11 -5 25 -11 31 -7 7 -8 19 -4 30 8 17 8 17 12 0 3 -9 9 -15
14 -11z m-2514 -209 c17 -18 17 -19 -6 -38 -23 -19 -23 -20 -6 -39 15 -16 15
-22 5 -35 -7 -8 -20 -15 -30 -15 -11 0 -20 -10 -24 -25 -10 -39 -39 -49 -68
-22 -24 20 -24 24 -12 52 7 17 13 24 14 18 0 -7 5 -13 10 -13 6 0 10 16 10 36
0 22 -4 33 -11 29 -6 -4 -9 0 -7 11 2 11 -2 18 -9 17 -17 -4 -16 3 3 25 21 25
106 24 131 -1z"/>
<path d="M4392 4152 c-9 -21 -9 -27 1 -34 9 -6 9 -8 0 -8 -8 0 -13 -13 -13
-34 0 -40 42 -88 68 -79 10 4 6 -3 -8 -15 -19 -16 -22 -24 -12 -30 7 -5 10
-16 6 -25 -15 -41 76 -2 95 40 14 31 14 33 -7 33 -13 0 -21 14 -31 48 -25 90
-38 117 -57 117 -11 -1 -21 3 -24 6 -3 4 -11 -4 -18 -19z"/>
<path d="M9063 6190 c-59 -13 -86 -56 -43 -67 11 -3 20 -9 20 -13 0 -4 15 -10
33 -14 25 -5 29 -9 17 -16 -15 -9 -11 -12 20 -14 9 -1 14 -9 12 -20 -2 -10 2
-22 8 -26 8 -5 7 -9 -5 -13 -10 -4 -14 -3 -9 4 4 8 -1 9 -17 4 -30 -9 -32 -11
-24 -24 3 -6 16 -11 28 -11 18 0 19 -2 7 -10 -8 -5 -27 -10 -42 -10 -16 0 -28
-4 -28 -9 0 -5 8 -7 18 -5 28 8 86 -22 121 -61 17 -20 31 -40 31 -44 0 -5 14
-14 32 -20 27 -10 33 -8 45 9 8 11 19 20 24 20 5 0 23 10 39 22 29 21 29 21
72 2 24 -10 50 -26 60 -34 37 -33 44 -36 73 -34 94 9 159 66 133 115 -8 14
-20 23 -29 21 -20 -4 -59 47 -59 76 0 11 -7 22 -15 26 -8 3 -15 13 -15 21 0
39 -85 82 -170 88 -37 2 -82 13 -105 24 -43 21 -167 28 -232 13z"/>
<path d="M8080 6078 c-19 -4 -51 -9 -71 -13 -33 -5 -38 -10 -57 -58 -11 -28
-25 -51 -30 -50 -13 3 -37 -26 -28 -34 3 -3 27 -7 53 -8 27 -1 75 -5 109 -9
58 -8 72 -5 128 27 2 1 12 -5 22 -14 13 -10 39 -15 86 -15 38 1 68 -2 68 -5 0
-4 11 -9 25 -11 22 -5 24 -3 18 21 -6 24 -5 25 11 12 14 -12 21 -12 41 -1 14
7 25 17 25 22 0 4 9 8 20 8 11 0 20 -4 20 -10 0 -16 27 -12 62 10 20 12 51 20
77 20 53 0 141 30 141 48 0 55 -130 75 -405 62 -44 -2 -125 -1 -180 1 -56 3
-116 1 -135 -3z"/>
<path d="M8279 5376 c13 -16 132 -97 171 -116 115 -58 496 -339 630 -464 72
-67 72 -67 202 -77 68 -4 164 -13 213 -19 50 -5 142 -14 205 -20 190 -16 202
-18 275 -29 39 -5 99 -13 135 -16 36 -3 80 -8 98 -11 l32 -5 0 243 0 243 -53
13 c-29 6 -85 12 -124 12 -40 0 -96 6 -126 14 -30 8 -117 17 -193 21 -77 4
-166 13 -199 20 -33 8 -74 16 -92 19 -18 2 -58 16 -90 31 -43 21 -81 29 -152
35 -100 8 -166 21 -239 46 -23 7 -62 14 -85 14 -23 0 -66 7 -96 15 -38 10 -82
12 -150 8 -68 -4 -116 -1 -161 9 -36 8 -86 14 -113 12 -26 -1 -50 2 -53 7 -3
5 -14 9 -26 9 -16 0 -18 -3 -9 -14z"/>
<path d="M3430 5018 c-21 -9 -22 -12 -7 -15 20 -5 23 -19 5 -26 -7 -3 -3 -6 8
-6 12 -1 27 -7 33 -15 10 -11 8 -16 -8 -21 -12 -3 -21 -15 -21 -25 0 -12 -14
-25 -40 -36 -47 -21 -49 -31 -15 -68 14 -15 24 -30 24 -34 -3 -19 2 -25 10
-13 5 8 18 17 28 19 32 8 95 4 102 -6 8 -13 42 15 59 48 9 18 10 33 4 51 -6
14 -8 38 -5 53 4 20 2 27 -5 22 -7 -4 -30 13 -55 39 -46 47 -69 54 -117 33z"/>
<path d="M3032 4938 c-14 -14 -17 -88 -4 -88 14 0 33 -51 27 -71 -4 -13 -1
-21 12 -25 10 -3 26 -10 35 -15 10 -5 25 -9 34 -9 24 0 14 101 -13 138 -11 15
-23 39 -27 55 -7 29 -41 38 -64 15z"/>
<path d="M980 4860 c-6 -11 -18 -20 -27 -20 -9 0 -31 -15 -49 -33 -31 -33 -31
-34 -13 -48 11 -8 27 -14 37 -14 9 0 16 -6 15 -12 -2 -7 3 -13 10 -13 8 0 28
-7 45 -16 24 -11 36 -13 52 -4 17 9 20 21 20 73 0 72 -18 107 -55 107 -14 0
-29 -9 -35 -20z"/>
<path d="M3016 4638 c-9 -12 -16 -30 -16 -40 0 -21 -21 -68 -30 -68 -10 0 -30
-48 -30 -73 0 -11 -17 -38 -37 -59 -50 -51 -37 -62 75 -66 68 -3 91 0 107 13
20 15 20 16 -2 31 -46 33 -21 74 47 79 29 3 40 0 40 -11 0 -8 -7 -14 -15 -14
-8 0 -15 -8 -15 -18 0 -23 40 -62 63 -62 28 0 32 -29 8 -46 -13 -9 -21 -26
-21 -42 0 -20 3 -23 9 -12 6 8 7 18 4 24 -4 5 3 7 15 4 12 -4 20 -2 17 2 -3 5
7 19 22 32 28 23 30 37 18 95 -3 13 -17 30 -31 40 -22 14 -27 14 -36 2 -7 -10
-8 -8 -3 8 7 25 -13 42 -26 22 -6 -9 -9 -10 -9 -2 0 6 4 14 10 18 5 3 6 15 1
28 -4 12 -6 28 -4 35 3 7 -8 17 -26 23 -25 9 -30 15 -25 34 7 27 2 31 -52 40
-37 6 -44 3 -58 -17z"/>
<path d="M695 4510 c-22 -11 -33 -20 -25 -20 13 0 13 -1 0 -10 -13 -8 -12 -11
5 -24 11 -8 35 -17 53 -21 18 -3 53 -15 78 -26 25 -10 70 -22 99 -25 53 -6 53
-6 60 24 3 17 13 36 21 42 18 16 7 32 -17 25 -10 -4 -19 -2 -19 3 0 5 -20 7
-45 4 -31 -3 -51 0 -63 10 -22 19 -69 38 -90 38 -9 -1 -35 -9 -57 -20z"/>
<path d="M1216 4455 c-9 -13 -16 -31 -16 -40 0 -8 -19 -26 -41 -41 -32 -20
-49 -24 -73 -19 -94 19 -99 19 -85 -2 6 -11 32 -33 58 -49 25 -16 55 -38 66
-49 44 -45 133 -115 146 -115 16 0 105 144 115 186 6 21 -2 34 -42 76 -42 42
-91 78 -107 78 -3 0 -12 -11 -21 -25z"/>
<path d="M2314 4337 c-6 -7 -27 -26 -46 -44 -27 -24 -34 -37 -31 -56 7 -37 40
-50 85 -34 32 11 78 53 78 71 0 7 -67 76 -72 76 -2 -1 -8 -6 -14 -13z"/>
<path d="M3025 4229 c-4 -13 -12 -18 -22 -15 -8 3 -24 3 -36 0 -24 -6 -80 -75
-91 -112 -4 -12 -15 -22 -25 -22 -24 0 -51 -31 -51 -58 0 -25 22 -29 40 -7 7
8 26 19 44 24 54 17 145 57 164 74 9 8 47 29 83 47 58 27 66 34 61 53 -5 17
-7 18 -10 5 -2 -12 -75 -48 -98 -48 -12 0 -34 36 -34 56 0 29 -16 32 -25 3z"/>
<path d="M2450 4202 c0 -7 -5 -10 -10 -7 -6 3 -13 0 -16 -8 -3 -8 -15 -13 -27
-13 -12 1 -30 -4 -39 -12 -11 -9 -27 -12 -42 -8 -29 7 -46 -12 -23 -26 10 -5
19 -28 23 -58 4 -28 10 -50 15 -50 16 0 10 -40 -7 -47 -9 -3 -37 -1 -63 5 -37
8 -47 8 -54 -4 -12 -21 -32 -17 -65 11 -39 32 -42 32 -42 -9 0 -34 13 -46 49
-46 20 0 47 -43 36 -59 -10 -17 17 -70 39 -77 19 -6 59 32 72 69 8 24 59 101
76 114 7 6 22 12 33 15 14 2 23 16 31 43 6 22 13 47 16 55 12 28 16 97 7 111
-7 11 -9 11 -9 1z"/>
<path d="M1712 4102 c-7 -5 -10 -16 -7 -24 3 -8 -1 -22 -9 -31 -9 -9 -16 -20
-16 -26 0 -6 -13 -11 -30 -11 -23 0 -30 -4 -30 -20 0 -10 6 -23 14 -27 8 -4
16 -14 18 -22 2 -8 16 -27 33 -41 24 -23 33 -26 52 -17 13 6 23 14 23 19 0 13
53 9 80 -7 14 -8 32 -14 40 -14 10 0 11 2 3 6 -9 3 -13 27 -13 68 0 59 -2 65
-29 84 -21 16 -31 18 -34 9 -3 -7 -8 2 -12 20 l-8 34 -22 -28 c-15 -19 -22
-22 -22 -11 0 9 4 14 9 11 4 -3 8 1 8 9 0 8 -7 18 -16 21 -19 7 -16 7 -32 -2z"/>
<path d="M2691 3634 c-1 -24 -7 -47 -16 -54 -8 -7 -15 -23 -15 -36 0 -41 -33
-63 -102 -70 -35 -3 -65 -8 -68 -10 -2 -3 6 -14 20 -24 19 -14 41 -18 97 -18
81 1 108 -12 99 -48 -5 -17 -1 -24 15 -29 28 -9 79 13 79 34 0 9 6 23 13 30
10 11 9 13 -5 8 -14 -5 -19 4 -28 51 -30 155 -33 164 -56 172 -12 5 -24 15
-27 22 -3 7 -6 -6 -6 -28z"/>
<path d="M2430 3380 c-14 -11 -31 -25 -37 -30 -7 -6 -13 -25 -13 -41 0 -20 -8
-38 -22 -50 l-23 -19 39 -35 c65 -57 130 -38 111 33 -4 15 -9 36 -11 47 -1 11
-6 35 -10 53 -4 21 -3 32 5 32 6 0 11 -9 11 -20 0 -11 5 -20 10 -20 16 0 11
23 -9 48 -23 26 -20 26 -51 2z"/>
<path d="M2044 3082 c-6 -4 -15 -17 -18 -30 -5 -15 -13 -21 -24 -18 -25 8 -59
-25 -56 -54 1 -14 3 -42 3 -63 1 -30 6 -40 20 -44 27 -7 17 -27 -30 -57 -23
-16 -41 -37 -45 -54 -4 -15 -15 -35 -25 -45 -11 -10 -19 -21 -20 -25 -3 -31
-11 -58 -22 -71 -10 -12 -9 -14 6 -8 10 4 20 7 23 7 9 0 34 61 34 83 0 13 11
33 25 45 32 28 35 27 32 0 -3 -34 42 -36 81 -3 38 32 122 47 122 21 0 -10 5
-14 10 -11 19 12 10 -13 -15 -43 -39 -46 -34 -64 15 -56 53 9 52 2 -7 -62 -13
-14 -23 -29 -23 -35 0 -6 -8 -9 -17 -8 -30 3 -41 0 -57 -17 -24 -23 -20 -31
22 -45 20 -7 42 -19 48 -27 9 -12 16 -13 46 -2 32 12 39 11 69 -7 26 -15 33
-26 31 -43 -1 -13 -8 -28 -15 -32 -8 -5 -7 -8 6 -8 9 0 17 5 17 10 0 6 8 10
17 10 9 0 14 3 10 6 -11 12 23 64 42 64 27 0 35 -29 15 -51 -15 -16 -15 -19
-2 -19 23 0 38 23 32 48 -5 16 -1 22 19 27 29 8 92 91 75 101 -7 5 -8 2 -3 -7
5 -8 -4 -2 -20 14 -15 15 -32 27 -37 27 -5 0 -8 8 -6 18 2 10 -2 16 -11 14 -9
-2 -12 4 -7 21 7 28 -20 62 -73 93 -35 21 -34 15 -15 127 7 41 -15 87 -41 87
-20 0 -32 29 -30 73 2 40 -5 46 -25 22 -17 -21 -31 -19 -81 10 -45 25 -75 31
-95 17z"/>
<path d="M1620 2426 c0 -8 7 -16 15 -20 8 -3 15 -12 15 -20 0 -9 9 -20 19 -26
12 -6 17 -17 15 -28 -8 -30 172 -252 205 -252 14 0 41 41 41 63 0 23 -40 78
-52 71 -5 -3 -4 -12 3 -20 18 -22 3 -28 -20 -7 -12 10 -29 42 -37 71 -12 39
-29 65 -66 102 -28 28 -56 50 -63 50 -7 0 -18 7 -25 15 -16 19 -50 20 -50 1z"/>
<path d="M1227 2339 c-38 -22 -279 -84 -372 -95 -68 -8 -105 -17 -105 -25 0
-21 273 -12 380 12 47 11 108 25 137 31 l51 12 -19 38 c-20 39 -39 46 -72 27z"/>
</g>
</svg>
